<svg xmlns="http://www.w3.org/2000/svg" viewBox="0 0 300 150" enable-background="new 0 0 300 150"><path fill="#fff" d="M66.113 140.092c-7.634 0-15.04-1.496-22.014-4.445-6.735-2.849-12.782-6.926-17.976-12.119-5.193-5.193-9.27-11.241-12.119-17.975-2.95-6.974-4.445-14.38-4.445-22.014 0-6.438 1.074-12.754 3.191-18.773 2.047-5.818 5.023-11.238 8.846-16.11 3.785-4.824 8.296-8.98 13.409-12.353 5.199-3.43 10.882-5.958 16.892-7.515 1.257-.325 2.538.43 2.864 1.686.325 1.256-.429 2.538-1.686 2.864-5.508 1.426-10.716 3.744-15.482 6.888-4.69 3.094-8.828 6.907-12.3 11.332-3.505 4.468-6.234 9.437-8.11 14.769-1.941 5.517-2.925 11.308-2.925 17.214 0 7.001 1.371 13.792 4.074 20.183 2.612 6.174 6.351 11.72 11.114 16.483 4.763 4.763 10.309 8.502 16.483 11.114 6.391 2.703 13.182 4.074 20.183 4.074 7.001 0 13.792-1.371 20.183-4.074 6.174-2.612 11.72-6.351 16.483-11.114 4.763-4.763 8.502-10.309 11.114-16.483 2.703-6.391 4.074-13.182 4.074-20.183 0-5.905-.984-11.697-2.925-17.213-1.876-5.332-4.604-10.301-8.11-14.769-3.472-4.425-7.61-8.237-12.3-11.332-4.765-3.144-9.974-5.462-15.481-6.888-1.256-.325-2.011-1.607-1.686-2.864.325-1.256 1.607-2.011 2.864-1.686 6.01 1.556 11.693 4.085 16.892 7.515 5.112 3.373 9.624 7.53 13.409 12.353 3.823 4.872 6.799 10.293 8.846 16.11 2.117 6.019 3.191 12.335 3.191 18.773 0 7.634-1.496 15.04-4.445 22.014-2.848 6.735-6.926 12.782-12.119 17.975-5.193 5.193-11.241 9.27-17.976 12.119-6.972 2.948-14.379 4.444-22.013 4.444zM66.5 49.128c-1.298 0-2.5-1.052-2.5-2.35v-34.52c0-1.298 1.202-2.35 2.5-2.35s2.5 1.052 2.5 2.35v34.521c0 1.297-1.202 2.349-2.5 2.349zM83.374 81h-14.374v-14.702c0-1.298-1.202-2.35-2.5-2.35s-2.5 1.052-2.5 2.35v14.702h-15.147c-1.298 0-2.35 1.202-2.35 2.5s1.052 2.5 2.35 2.5h15.147v14.819c0 1.298 1.202 2.35 2.5 2.35s2.5-1.052 2.5-2.35v-14.819h14.374c1.298 0 2.35-1.202 2.35-2.5s-1.053-2.5-2.35-2.5z"/><g fill="#fff"><path d="M157.683 81.816h1.783v-.984c0-5.965-3.259-7.994-7.625-7.994-3.443 0-6.087 1.291-7.502 2.152-.861.43-1.537.307-2.091-.492l-.369-.615c-.492-.799-.369-1.599.43-2.091 1.599-.984 5.042-2.705 9.838-2.705 7.379 0 11.499 4.12 11.499 11.868v18.263c0 .984-.492 1.537-1.476 1.537h-.984c-.984 0-1.537-.492-1.537-1.537v-2.46c0-1.414.184-2.337.184-2.337h-.123c.062 0-2.767 7.071-10.453 7.071-5.227 0-10.453-3.074-10.453-9.039.002-10.083 12.915-10.637 18.879-10.637zm-7.686 16.172c5.965 0 9.469-6.149 9.469-11.56v-1.476h-1.722c-4.858 0-14.635.185-14.635 7.133.001 2.89 2.276 5.903 6.888 5.903zM180.189 69.088c7.502 0 10.146 6.21 10.146 6.21h.123s-.184-1.045-.184-2.337v-13.896c0-.984.553-1.537 1.537-1.537h1.168c.984 0 1.476.553 1.476 1.537v40.153c0 .984-.492 1.537-1.476 1.537h-1.045c-.984 0-1.537-.492-1.537-1.476v-2.337c0-1.107.246-1.906.246-1.906h-.123s-2.644 6.456-10.761 6.456c-8.301 0-13.466-6.641-13.466-16.233-.001-9.776 5.779-16.171 13.896-16.171zm.184 28.654c5.165 0 10.023-3.689 10.023-12.482 0-6.272-3.198-12.359-9.838-12.359-5.473 0-9.961 4.55-9.961 12.359-.001 7.625 3.996 12.482 9.776 12.482zM227.597 56.052c13.651 0 22.997 9.838 22.997 22.444 0 12.913-9.346 22.997-22.997 22.997s-22.997-10.084-22.997-22.997c0-12.606 9.346-22.444 22.997-22.444zm0 35.603c6.948 0 11.868-5.657 11.868-13.159 0-7.194-4.919-12.605-11.868-12.605-6.948 0-11.868 5.411-11.868 12.605.001 7.502 4.92 13.159 11.868 13.159zM253.3 60.172c0-2.214 1.168-3.382 3.382-3.382h4.796c1.906 0 3.136.676 4.058 2.275l10.822 18.262c1.722 2.89 3.689 7.502 3.689 7.502h.123s-.492-4.735-.492-7.502v-17.155c0-2.214 1.168-3.382 3.382-3.382h3.997c2.214 0 3.382 1.168 3.382 3.382v37.201c0 2.214-1.168 3.382-3.382 3.382h-4.796c-1.845 0-3.074-.676-3.997-2.275l-10.884-18.201c-1.722-2.89-3.689-7.502-3.689-7.502h-.123s.492 4.735.492 7.502v17.094c0 2.214-1.168 3.382-3.382 3.382h-3.997c-2.214 0-3.382-1.168-3.382-3.382v-37.201z"/></g></svg>