<svg xmlns="http://www.w3.org/2000/svg" viewBox="0 0 300 300" enable-background="new 0 0 300 300"><g stroke="#123" stroke-width="2" stroke-linecap="round" stroke-linejoin="round" stroke-miterlimit="10" fill="none"><circle cx="149.398" cy="149.4" r="84.792"/><circle cx="149.398" cy="149.4" r="99.792"/><circle cx="149.398" cy="149.4" r="115.792"/><path d="M149 109.192c-11.046 0-20 8.954-20 20v40c0 11.046 8.954 20 20 20s20-8.954 20-20v-40c0-11.046-8.954-20-20-20zM175 169.192c0 14.359-11.641 26-26 26s-26-11.641-26-26M149 195v14M140 209h18M129 159h40M149 116v36M139 120v32M159 120v32M144 117v35M154 117v35"/></g></svg>