<?xml version="1.0" encoding="utf-8"?>
<!-- Generator: Adobe Illustrator 17.1.0, SVG Export Plug-In . SVG Version: 6.00 Build 0)  -->
<!DOCTYPE svg PUBLIC "-//W3C//DTD SVG 1.1//EN" "http://www.w3.org/Graphics/SVG/1.1/DTD/svg11.dtd">
<svg version="1.1" id="Layer_1" xmlns="http://www.w3.org/2000/svg" xmlns:xlink="http://www.w3.org/1999/xlink" x="0px" y="0px"
	 viewBox="0 0 150 150" enable-background="new 0 0 150 150" xml:space="preserve">
<g>
	<g>
		<path fill="#FFFFFF" d="M94,75v6.533c0,10.289-7.985,19.064-18.267,19.453C64.924,101.395,56,92.72,56,82v-7c0-0.552-0.448-1-1-1
			h-4c-0.552,0-1,0.448-1,1v7c0,12.769,9.625,23.326,22,24.814V118h-6c-0.552,0-1,0.448-1,1v4c0,0.552,0.448,1,1,1h18
			c0.552,0,1-0.448,1-1v-4c0-0.552-0.448-1-1-1h-6v-11.186c12.375-1.488,22-12.044,22-24.814v-7c0-0.552-0.448-1-1-1h-4
			C94.448,74,94,74.448,94,75z"/>
	</g>
	<g>
		<path fill="#FFFFFF" d="M75,150c-41.355,0-75-33.645-75-75S33.645,0,75,0s75,33.645,75,75S116.355,150,75,150z M75,10
			c-35.841,0-65,29.159-65,65s29.159,65,65,65s65-29.159,65-65S110.841,10,75,10z"/>
	</g>
	<g>
		<path fill="#FFFFFF" d="M90.965,46C90.598,38,83.602,30.765,75,30.765S59.402,38,59.035,46H59v37h0.05
			c0.519,9,7.451,14.932,15.95,14.932S90.431,92,90.95,83H91V46H90.965z"/>
	</g>
</g>
</svg>
