<?xml version="1.0" encoding="utf-8"?>
<!-- Generator: Adobe Illustrator 17.1.0, SVG Export Plug-In . SVG Version: 6.00 Build 0)  -->
<!DOCTYPE svg PUBLIC "-//W3C//DTD SVG 1.1//EN" "http://www.w3.org/Graphics/SVG/1.1/DTD/svg11.dtd">
<svg version="1.1" id="Layer_1" xmlns="http://www.w3.org/2000/svg" xmlns:xlink="http://www.w3.org/1999/xlink" x="0px" y="0px"
	 viewBox="0 0 150 150" enable-background="new 0 0 150 150" xml:space="preserve">
<g>
	<g>
		<g>
			<g>
				<path fill="#FFFFFF" d="M59.2,89.764H35.519c-2.11,0-3.82-1.71-3.82-3.82V63.026c0-2.11,1.71-3.82,3.82-3.82H59.2V89.764z"/>
			</g>
			<g>
				<path fill="#FFFFFF" d="M70.373,108.47L46.985,89.759V59.211l23.388-18.711c0.834-0.667,2.069-0.073,2.069,0.994v65.981
					C72.442,108.543,71.207,109.137,70.373,108.47z"/>
			</g>
		</g>
		<g>
			<g>
				<path fill="#FFFFFF" d="M95.251,53.932c-0.476-0.518-1.284-0.516-1.781-0.019l-3.961,3.961
					c-0.497,0.497-0.494,1.301-0.027,1.826c3.486,3.917,5.391,8.912,5.391,14.199c0,5.288-1.905,10.282-5.391,14.199
					c-0.467,0.525-0.47,1.329,0.027,1.826l3.961,3.961c0.497,0.497,1.305,0.499,1.781-0.019c5.021-5.461,7.771-12.503,7.771-19.968
					C103.022,66.436,100.272,59.394,95.251,53.932z"/>
			</g>
			<g>
				<path fill="#FFFFFF" d="M104.274,43.11l-3.961,3.961c-0.497,0.497-0.495,1.302-0.015,1.816
					c6.365,6.811,9.854,15.644,9.854,25.013s-3.49,18.202-9.854,25.013c-0.48,0.514-0.482,1.319,0.015,1.816l3.961,3.961
					c0.497,0.497,1.305,0.499,1.788-0.012c7.903-8.353,12.239-19.232,12.239-30.778s-4.337-22.425-12.239-30.778
					C105.578,42.611,104.771,42.613,104.274,43.11z"/>
			</g>
			<g>
				<path fill="#FFFFFF" d="M83.387,63.998l-3.601,3.601c-0.497,0.497-0.486,1.299-0.077,1.871c0.918,1.285,1.414,2.82,1.414,4.431
					s-0.495,3.146-1.414,4.431c-0.409,0.572-0.42,1.374,0.077,1.871l3.601,3.601c0.497,0.497,1.308,0.5,1.763-0.036
					c2.338-2.755,3.612-6.213,3.612-9.867s-1.274-7.112-3.612-9.867C84.695,63.497,83.884,63.5,83.387,63.998z"/>
			</g>
		</g>
	</g>
	<g>
		<path fill="#FFFFFF" d="M75,150c-41.355,0-75-33.645-75-75S33.645,0,75,0s75,33.645,75,75S116.355,150,75,150z M75,10
			c-35.841,0-65,29.159-65,65s29.159,65,65,65s65-29.159,65-65S110.841,10,75,10z"/>
	</g>
</g>
</svg>
