<?xml version="1.0" encoding="utf-8"?>
<!-- Generator: Adobe Illustrator 17.1.0, SVG Export Plug-In . SVG Version: 6.00 Build 0)  -->
<!DOCTYPE svg PUBLIC "-//W3C//DTD SVG 1.1//EN" "http://www.w3.org/Graphics/SVG/1.1/DTD/svg11.dtd">
<svg version="1.1" id="Layer_1" xmlns="http://www.w3.org/2000/svg" xmlns:xlink="http://www.w3.org/1999/xlink" x="0px" y="0px"
	 viewBox="0 0 300 150" enable-background="new 0 0 300 150" xml:space="preserve">
<g>
	<g>
		<g>
			<path fill="#FFFFFF" d="M66.113,140.092c-7.634,0-15.04-1.496-22.014-4.445c-6.735-2.849-12.782-6.926-17.976-12.119
				c-5.193-5.193-9.27-11.241-12.119-17.975c-2.95-6.974-4.445-14.38-4.445-22.014c0-6.438,1.074-12.754,3.191-18.773
				c2.047-5.818,5.023-11.238,8.846-16.11c3.785-4.824,8.296-8.98,13.409-12.353c5.199-3.43,10.882-5.958,16.892-7.515
				c1.257-0.325,2.538,0.43,2.864,1.686c0.325,1.256-0.429,2.538-1.686,2.864c-5.508,1.426-10.716,3.744-15.482,6.888
				c-4.69,3.094-8.828,6.907-12.3,11.332c-3.505,4.468-6.234,9.437-8.11,14.769c-1.941,5.517-2.925,11.308-2.925,17.214
				c0,7.001,1.371,13.792,4.074,20.183c2.612,6.174,6.351,11.72,11.114,16.483c4.763,4.763,10.309,8.502,16.483,11.114
				c6.391,2.703,13.182,4.074,20.183,4.074c7.001,0,13.792-1.371,20.183-4.074c6.174-2.612,11.72-6.351,16.483-11.114
				c4.763-4.763,8.502-10.309,11.114-16.483c2.703-6.391,4.074-13.182,4.074-20.183c0-5.905-0.984-11.697-2.925-17.213
				c-1.876-5.332-4.604-10.301-8.11-14.769c-3.472-4.425-7.61-8.237-12.3-11.332c-4.765-3.144-9.974-5.462-15.481-6.888
				c-1.256-0.325-2.011-1.607-1.686-2.864c0.325-1.256,1.607-2.011,2.864-1.686c6.01,1.556,11.693,4.085,16.892,7.515
				c5.112,3.373,9.624,7.53,13.409,12.353c3.823,4.872,6.799,10.293,8.846,16.11c2.117,6.019,3.191,12.335,3.191,18.773
				c0,7.634-1.496,15.04-4.445,22.014c-2.848,6.735-6.926,12.782-12.119,17.975c-5.193,5.193-11.241,9.27-17.976,12.119
				C81.154,138.596,73.747,140.092,66.113,140.092z"/>
		</g>
		<g>
			<path fill="#FFFFFF" d="M66.5,49.128c-1.298,0-2.5-1.052-2.5-2.35V12.258c0-1.298,1.202-2.35,2.5-2.35s2.5,1.052,2.5,2.35v34.521
				C69,48.076,67.798,49.128,66.5,49.128z"/>
		</g>
		<path fill="#FFFFFF" d="M83.374,81H69V66.298c0-1.298-1.202-2.35-2.5-2.35s-2.5,1.052-2.5,2.35V81H48.853
			c-1.298,0-2.35,1.202-2.35,2.5s1.052,2.5,2.35,2.5H64v14.819c0,1.298,1.202,2.35,2.5,2.35s2.5-1.052,2.5-2.35V86h14.374
			c1.298,0,2.35-1.202,2.35-2.5S84.671,81,83.374,81z"/>
	</g>
	<g>
		<path fill="#FFFFFF" d="M157.683,81.816h1.783v-0.984c0-5.965-3.259-7.994-7.625-7.994c-3.443,0-6.087,1.291-7.502,2.152
			c-0.861,0.43-1.537,0.307-2.091-0.492l-0.369-0.615c-0.492-0.799-0.369-1.599,0.43-2.091c1.599-0.984,5.042-2.705,9.838-2.705
			c7.379,0,11.499,4.12,11.499,11.868v18.263c0,0.984-0.492,1.537-1.476,1.537h-0.984c-0.984,0-1.537-0.492-1.537-1.537v-2.46
			c0-1.414,0.184-2.337,0.184-2.337h-0.123c0.062,0-2.767,7.071-10.453,7.071c-5.227,0-10.453-3.074-10.453-9.039
			C138.806,82.37,151.719,81.816,157.683,81.816z M149.997,97.988c5.965,0,9.469-6.149,9.469-11.56v-1.476h-1.722
			c-4.858,0-14.635,0.185-14.635,7.133C143.11,94.975,145.385,97.988,149.997,97.988z"/>
		<path fill="#FFFFFF" d="M180.189,69.088c7.502,0,10.146,6.21,10.146,6.21h0.123c0,0-0.184-1.045-0.184-2.337V59.065
			c0-0.984,0.553-1.537,1.537-1.537h1.168c0.984,0,1.476,0.553,1.476,1.537v40.153c0,0.984-0.492,1.537-1.476,1.537h-1.045
			c-0.984,0-1.537-0.492-1.537-1.476v-2.337c0-1.107,0.246-1.906,0.246-1.906h-0.123c0,0-2.644,6.456-10.761,6.456
			c-8.301,0-13.466-6.641-13.466-16.233C166.292,75.483,172.072,69.088,180.189,69.088z M180.373,97.742
			c5.165,0,10.023-3.689,10.023-12.482c0-6.272-3.198-12.359-9.838-12.359c-5.473,0-9.961,4.55-9.961,12.359
			C170.596,92.885,174.593,97.742,180.373,97.742z"/>
		<path fill="#FFFFFF" d="M227.597,56.052c13.651,0,22.997,9.838,22.997,22.444c0,12.913-9.346,22.997-22.997,22.997
			S204.6,91.409,204.6,78.496C204.6,65.89,213.946,56.052,227.597,56.052z M227.597,91.655c6.948,0,11.868-5.657,11.868-13.159
			c0-7.194-4.919-12.605-11.868-12.605c-6.948,0-11.868,5.411-11.868,12.605C215.73,85.998,220.649,91.655,227.597,91.655z"/>
		<path fill="#FFFFFF" d="M253.3,60.172c0-2.214,1.168-3.382,3.382-3.382h4.796c1.906,0,3.136,0.676,4.058,2.275l10.822,18.262
			c1.722,2.89,3.689,7.502,3.689,7.502h0.123c0,0-0.492-4.735-0.492-7.502V60.172c0-2.214,1.168-3.382,3.382-3.382h3.997
			c2.214,0,3.382,1.168,3.382,3.382v37.201c0,2.214-1.168,3.382-3.382,3.382h-4.796c-1.845,0-3.074-0.676-3.997-2.275
			l-10.884-18.201c-1.722-2.89-3.689-7.502-3.689-7.502h-0.123c0,0,0.492,4.735,0.492,7.502v17.094c0,2.214-1.168,3.382-3.382,3.382
			h-3.997c-2.214,0-3.382-1.168-3.382-3.382V60.172z"/>
	</g>
</g>
</svg>
