<?xml version="1.0" encoding="utf-8"?>
<!-- Generator: Adobe Illustrator 17.1.0, SVG Export Plug-In . SVG Version: 6.00 Build 0)  -->
<!DOCTYPE svg PUBLIC "-//W3C//DTD SVG 1.1//EN" "http://www.w3.org/Graphics/SVG/1.1/DTD/svg11.dtd">
<svg version="1.1" id="Layer_1" xmlns="http://www.w3.org/2000/svg" xmlns:xlink="http://www.w3.org/1999/xlink" x="0px" y="0px"
	 viewBox="0 0 300 300" enable-background="new 0 0 300 300" xml:space="preserve">
<g>
	
		<circle fill="none" stroke="#112233" stroke-width="2" stroke-linecap="round" stroke-linejoin="round" stroke-miterlimit="10" cx="149.398" cy="149.4" r="84.792"/>
	
		<circle fill="none" stroke="#112233" stroke-width="2" stroke-linecap="round" stroke-linejoin="round" stroke-miterlimit="10" cx="149.398" cy="149.4" r="99.792"/>
	
		<circle fill="none" stroke="#112233" stroke-width="2" stroke-linecap="round" stroke-linejoin="round" stroke-miterlimit="10" cx="149.398" cy="149.4" r="115.792"/>
	<path fill="none" stroke="#112233" stroke-width="2" stroke-linecap="round" stroke-linejoin="round" stroke-miterlimit="10" d="
		M149,109.192c-11.046,0-20,8.954-20,20v40c0,11.046,8.954,20,20,20s20-8.954,20-20v-40C169,118.146,160.046,109.192,149,109.192z"
		/>
	<path fill="none" stroke="#112233" stroke-width="2" stroke-linecap="round" stroke-linejoin="round" stroke-miterlimit="10" d="
		M175,169.192c0,14.359-11.641,26-26,26s-26-11.641-26-26"/>
	
		<line fill="none" stroke="#112233" stroke-width="2" stroke-linecap="round" stroke-linejoin="round" stroke-miterlimit="10" x1="149" y1="195" x2="149" y2="209"/>
	
		<line fill="none" stroke="#112233" stroke-width="2" stroke-linecap="round" stroke-linejoin="round" stroke-miterlimit="10" x1="140" y1="209" x2="158" y2="209"/>
	
		<line fill="none" stroke="#112233" stroke-width="2" stroke-linecap="round" stroke-linejoin="round" stroke-miterlimit="10" x1="129" y1="159" x2="169" y2="159"/>
	
		<line fill="none" stroke="#112233" stroke-width="2" stroke-linecap="round" stroke-linejoin="round" stroke-miterlimit="10" x1="149" y1="116" x2="149" y2="152"/>
	
		<line fill="none" stroke="#112233" stroke-width="2" stroke-linecap="round" stroke-linejoin="round" stroke-miterlimit="10" x1="139" y1="120" x2="139" y2="152"/>
	
		<line fill="none" stroke="#112233" stroke-width="2" stroke-linecap="round" stroke-linejoin="round" stroke-miterlimit="10" x1="159" y1="120" x2="159" y2="152"/>
	
		<line fill="none" stroke="#112233" stroke-width="2" stroke-linecap="round" stroke-linejoin="round" stroke-miterlimit="10" x1="144" y1="117" x2="144" y2="152"/>
	
		<line fill="none" stroke="#112233" stroke-width="2" stroke-linecap="round" stroke-linejoin="round" stroke-miterlimit="10" x1="154" y1="117" x2="154" y2="152"/>
</g>
</svg>
